<svg width="32" height="32" viewBox="0 0 32 32" fill="none" xmlns="http://www.w3.org/2000/svg">
<g clip-path="url(#clip0_56_2)">
<path d="M7.5625 29.4167C7.0125 29.4167 6.53125 29.2229 6.11875 28.8354C5.70625 28.4479 5.5 27.9958 5.5 27.4792V5.52084C5.5 5.00418 5.70625 4.55209 6.11875 4.16459C6.53125 3.77709 7.0125 3.58334 7.5625 3.58334H25.4375C25.9875 3.58334 26.4688 3.77709 26.8813 4.16459C27.2938 4.55209 27.5 5.00418 27.5 5.52084V27.4792C27.5 27.9958 27.2938 28.4479 26.8813 28.8354C26.4688 29.2229 25.9875 29.4167 25.4375 29.4167H7.5625ZM7.5625 27.4792H25.4375V5.52084H23.375V14.1104L20.0406 12.3021L16.7063 14.1104V5.52084H7.5625V27.4792Z" fill="#FFB629"/>
</g>
<defs>
<clipPath id="clip0_56_2">
<rect width="32" height="32" fill="white"/>
</clipPath>
</defs>
</svg>
